<svg xmlns="http://www.w3.org/2000/svg" width="112.28" height="35" viewBox="0 0 112.28 35"><rect class="svg__rect" x="0" y="0" width="58.58" height="35" fill="#FFC200"/><rect class="svg__rect" x="56.58" y="0" width="55.7" height="35" fill="#FF9400"/><path class="svg__text" d="M17.33 22L14.22 22L14.22 13.47L17.14 13.47Q18.59 13.47 19.34 14.05Q20.10 14.63 20.10 15.78L20.10 15.78Q20.10 16.36 19.78 16.83Q19.47 17.30 18.86 17.56L18.86 17.56Q19.55 17.75 19.93 18.26Q20.31 18.78 20.31 19.51L20.31 19.51Q20.31 20.71 19.53 21.36Q18.76 22 17.33 22L17.33 22ZM15.70 18.15L15.70 20.82L17.35 20.82Q18.04 20.82 18.44 20.47Q18.83 20.13 18.83 19.51L18.83 19.51Q18.83 18.18 17.47 18.15L17.47 18.15L15.70 18.15ZM15.70 14.66L15.70 17.06L17.15 17.06Q17.84 17.06 18.23 16.75Q18.62 16.43 18.62 15.86L18.62 15.86Q18.62 15.23 18.26 14.95Q17.90 14.66 17.14 14.66L17.14 14.66L15.70 14.66ZM24.51 18.00L24.51 18.00L24.51 17.52Q24.51 16.28 24.95 15.32Q25.39 14.37 26.20 13.86Q27.00 13.35 28.05 13.35Q29.09 13.35 29.89 13.85Q30.70 14.35 31.14 15.29Q31.58 16.23 31.58 17.48L31.58 17.48L31.58 17.96Q31.58 19.21 31.15 20.16Q30.72 21.10 29.91 21.61Q29.11 22.12 28.06 22.12L28.06 22.12Q27.02 22.12 26.21 21.61Q25.40 21.10 24.95 20.17Q24.51 19.23 24.51 18.00ZM25.99 17.46L25.99 17.96Q25.99 19.36 26.54 20.13Q27.08 20.90 28.06 20.90L28.06 20.90Q29.04 20.90 29.57 20.15Q30.10 19.40 30.10 17.96L30.10 17.96L30.10 17.51Q30.10 16.09 29.57 15.34Q29.03 14.58 28.05 14.58L28.05 14.58Q27.08 14.58 26.54 15.33Q26.00 16.09 25.99 17.46L25.99 17.46ZM37.53 22L36.05 22L36.05 13.47L37.97 13.47L40.43 20.01L42.89 13.47L44.80 13.47L44.80 22L43.33 22L43.33 19.19L43.47 15.43L40.95 22L39.89 22L37.38 15.43L37.53 19.19L37.53 22Z" fill="#FFFFFF"/><path class="svg__text" d="M74.74 22L70.77 22L70.77 13.60L74.74 13.60Q76.12 13.60 77.19 14.12Q78.26 14.63 78.85 15.58Q79.43 16.53 79.43 17.80L79.43 17.80Q79.43 19.07 78.85 20.02Q78.26 20.97 77.19 21.48Q76.12 22 74.74 22L74.74 22ZM73.15 15.50L73.15 20.10L74.65 20.10Q75.72 20.10 76.38 19.49Q77.03 18.88 77.03 17.80L77.03 17.80Q77.03 16.72 76.38 16.11Q75.72 15.50 74.65 15.50L74.65 15.50L73.15 15.50ZM86.54 22L84.16 22L84.16 13.60L86.54 13.60L86.54 22ZM93.13 22L90.71 22L94.42 13.60L96.76 13.60L100.47 22L98.01 22L97.35 20.37L93.80 20.37L93.13 22ZM95.57 15.93L94.49 18.61L96.65 18.61L95.57 15.93Z" fill="#FFFFFF" x="69.58"/></svg>