<?xml version="1.0" encoding="utf-8"?>
<svg xmlns="http://www.w3.org/2000/svg" xmlns:xlink="http://www.w3.org/1999/xlink" style="margin: auto; background: rgb(241, 242, 243); display: block; shape-rendering: auto;" width="200px" height="200px" viewBox="0 0 100 100" preserveAspectRatio="xMidYMid">
<g transform="translate(50 50)">
<g>
<animateTransform attributeName="transform" type="rotate" values="0;45" keyTimes="0;1" dur="0.2s" repeatCount="indefinite"></animateTransform><path d="M28.770644761631605 -8.5 L38.7706447616316 -8.5 L38.7706447616316 8.5 L28.770644761631605 8.5 A30 30 0 0 1 26.35432565014458 14.333510369973274 L26.35432565014458 14.333510369973274 L33.42539346201006 21.404578181838747 L21.40457818183875 33.42539346201005 L14.333510369973276 26.354325650144578 A30 30 0 0 1 8.5 28.770644761631605 L8.5 28.770644761631605 L8.5 38.7706447616316 L-8.499999999999996 38.7706447616316 L-8.499999999999996 28.770644761631605 A30 30 0 0 1 -14.333510369973267 26.354325650144585 L-14.333510369973267 26.354325650144585 L-21.40457818183874 33.425393462010064 L-33.42539346201006 21.404578181838747 L-26.35432565014458 14.333510369973272 A30 30 0 0 1 -28.7706447616316 8.500000000000009 L-28.7706447616316 8.500000000000009 L-38.7706447616316 8.50000000000001 L-38.7706447616316 -8.5 L-28.770644761631605 -8.500000000000002 A30 30 0 0 1 -26.354325650144585 -14.333510369973265 L-26.354325650144585 -14.333510369973265 L-33.425393462010064 -21.404578181838737 L-21.40457818183876 -33.42539346201005 L-14.333510369973284 -26.354325650144574 A30 30 0 0 1 -8.499999999999998 -28.770644761631605 L-8.499999999999998 -28.770644761631605 L-8.5 -38.7706447616316 L8.499999999999984 -38.77064476163161 L8.499999999999986 -28.77064476163161 A30 30 0 0 1 14.333510369973276 -26.35432565014458 L14.333510369973276 -26.35432565014458 L21.404578181838747 -33.42539346201006 L33.42539346201005 -21.404578181838765 L26.354325650144574 -14.333510369973286 A30 30 0 0 1 28.770644761631605 -8.5 M0 -17A17 17 0 1 0 0 17 A17 17 0 1 0 0 -17" fill="#93dbe9"></path></g></g>
<!-- [ldio] generated by https://loading.io/ --></svg>